<svg width="70" height="50" viewBox="0 0 70 50" fill="none" xmlns="http://www.w3.org/2000/svg">
<rect width="70" height="50" rx="4" fill="#0742A6"/>
<path fill-rule="evenodd" clip-rule="evenodd" d="M32.0221 31.7432H28.4824L30.6964 18.4111H34.2359L32.0221 31.7432Z" fill="white"/>
<path fill-rule="evenodd" clip-rule="evenodd" d="M44.854 18.7375C44.1558 18.4678 43.0484 18.1699 41.6791 18.1699C38.1836 18.1699 35.722 19.9853 35.7069 22.5807C35.6779 24.4955 37.4693 25.5591 38.8092 26.1976C40.1786 26.85 40.6441 27.2759 40.6441 27.8574C40.6302 28.7506 39.5375 29.1623 38.5184 29.1623C37.1052 29.1623 36.348 28.95 35.1973 28.4531L34.7312 28.2401L34.2358 31.2328C35.066 31.6012 36.5956 31.9281 38.1836 31.9424C41.8977 31.9424 44.3157 30.1551 44.3443 27.3893C44.3584 25.8716 43.4125 24.7087 41.3731 23.7585C40.1351 23.1484 39.3769 22.7371 39.3769 22.113C39.3914 21.5456 40.0182 20.9644 41.4157 20.9644C42.5664 20.9359 43.4119 21.2053 44.0524 21.4749L44.3726 21.6164L44.854 18.7375Z" fill="white"/>
<path fill-rule="evenodd" clip-rule="evenodd" d="M51.1899 18.4111H53.9278L56.7835 31.7431H53.5061C53.5061 31.7431 53.1853 30.2112 53.0837 29.7432H48.539C48.4076 30.0976 47.7961 31.7431 47.7961 31.7431H44.082L49.3398 19.5173C49.7041 18.652 50.3456 18.4111 51.1899 18.4111ZM50.9717 23.2899C50.9717 23.2899 49.85 26.2542 49.5585 27.0202H52.5007C52.3551 26.3536 51.6848 23.1623 51.6848 23.1623L51.4374 22.0135C51.3333 22.3094 51.1826 22.7161 51.081 22.9904C51.0121 23.1763 50.9658 23.3014 50.9717 23.2899Z" fill="white"/>
<path fill-rule="evenodd" clip-rule="evenodd" d="M25.5263 18.4111L22.0598 27.5024L21.681 25.6586C21.0401 23.531 19.0301 21.2195 16.7871 20.0702L19.9623 31.7291H23.7055L29.2692 18.4111H25.5263V18.4111Z" fill="white"/>
<path fill-rule="evenodd" clip-rule="evenodd" d="M18.8407 18.4111H13.1457L13.0874 18.6805C17.5299 19.7869 20.472 22.4537 21.6808 25.6591L20.4428 19.5318C20.239 18.6803 19.6126 18.4392 18.8407 18.4111Z" fill="white"/>
</svg>
